<?xml version="1.0" encoding="utf-8"?>
<!-- Generator: Adobe Illustrator 22.0.0, SVG Export Plug-In . SVG Version: 6.00 Build 0)  -->
<svg version="1.1" id="Camada_1" xmlns="http://www.w3.org/2000/svg" xmlns:xlink="http://www.w3.org/1999/xlink" x="0px" y="0px"
	 viewBox="0 0 93.4 93.4" style="enable-background:new 0 0 93.4 93.4;" xml:space="preserve">
<style type="text/css">
	.st0{fill:#808080;stroke:#808080;stroke-width:0.6588;stroke-miterlimit:10;}
	.st1{fill:#808080;}
</style>
<title>adicionar</title>
<g>
	<path class="st0" d="M91.3,58c0-0.9,0-1.8,0-2.7c0-0.3-0.3-0.6-0.6-0.6c-5.3,0-9.2-1.5-12.6-4.8c-0.1-0.1-0.3-0.2-0.4-0.2
		s-0.3,0.1-0.4,0.2c-3.4,3.3-7.3,4.8-12.6,4.8c-0.3,0-0.6,0.3-0.6,0.6c0,0.9,0,1.7,0,2.7c-0.2,8.9-0.4,19.9,13.5,24.7
		c0.1,0,0.3,0,0.4,0C91.7,77.9,91.5,66.9,91.3,58z M77.6,81.5l-0.3-0.1c-12.5-4.6-12.3-15-12.2-23.3V56l0.9,0c4-0.1,7.9-1.6,11-4.1
		l0.6-0.5l0.6,0.5c3.1,2.6,7,4,11,4.1l0.9,0v2.1c0.2,8.3,0.5,18.7-12.1,23.3L77.6,81.5z"/>
	<path class="st0" d="M74.3,69.7c0.1,0.1,0.3,0.2,0.4,0.2h0c0.2,0,0.3-0.1,0.4-0.2l6-6c0.1-0.1,0.1-0.2,0.1-0.4
		c0-0.2-0.1-0.3-0.2-0.4c-0.2-0.2-0.6-0.2-0.8,0l-5.5,5.5L72.3,66c-0.1-0.1-0.3-0.2-0.4-0.2c-0.2,0-0.3,0.1-0.4,0.2
		c-0.2,0.2-0.2,0.6,0,0.9L74.3,69.7z"/>
	<g>
		<path class="st1" d="M78.7,46.9V37c0-2.4-1.8-4.2-4.2-4.2h-5.7l-9-19.8c-0.4-0.8-1.1-1.4-1.8-1.7c-0.8-0.3-1.7-0.3-2.6,0.1
			L3.7,34.9C2,35.7,1.2,37.7,2,39.4l13.3,29.1h0.1c0.5,1.7,2.1,3,4.1,3H62v-2.1H19.4c-1.2,0-2.2-1.1-2.2-2.2V36.9
			c0-1.2,1.1-2.2,2.2-2.2h55.1c1.2,0,2.2,1.1,2.2,2.2v10H78.7z M66.6,32.6H38.2L61.7,22L66.6,32.6z M4.5,36.7l51.7-23.6
			c0.4-0.1,0.7-0.1,1.1,0c0.4,0.1,0.7,0.4,0.8,0.8l2.9,6.5L33.5,32.6H19.4c-2.4,0-4.2,1.8-4.2,4.2v4.1l-8.6,3.8l-2.9-6.3
			C3.4,37.8,3.7,37,4.5,36.7z M15.2,63.5L7.4,46.6l7.8-3.4V63.5z"/>
		<rect x="25.6" y="61.8" class="st1" width="2" height="2"/>
		<rect x="20.7" y="61.8" class="st1" width="2" height="2"/>
		<rect x="50" y="61.8" class="st1" width="2" height="2"/>
		<rect x="54.8" y="61.8" class="st1" width="2" height="2"/>
		<rect x="45.1" y="61.8" class="st1" width="2" height="2"/>
		<rect x="40.2" y="61.8" class="st1" width="2" height="2"/>
		<rect x="35.3" y="61.8" class="st1" width="2" height="2"/>
		<rect x="30.5" y="61.8" class="st1" width="2" height="2"/>
		<path class="st1" d="M22.8,50.2h16.3V39.6H22.8V50.2z M24.8,41.6h12.4v6.6H24.8V41.6z"/>
		<rect x="49" y="48.2" class="st1" width="15.8" height="2"/>
		<rect x="56.5" y="42.1" class="st1" width="15.4" height="2"/>
	</g>
</g>
</svg>
