<?xml version="1.0" encoding="utf-8"?>
<!-- Generator: Adobe Illustrator 22.0.1, SVG Export Plug-In . SVG Version: 6.00 Build 0)  -->
<svg version="1.1" id="Camada_1" xmlns="http://www.w3.org/2000/svg" xmlns:xlink="http://www.w3.org/1999/xlink" x="0px" y="0px"
	 viewBox="0 0 100 100" style="enable-background:new 0 0 100 100;" xml:space="preserve">
<style type="text/css">
	.st0{fill:#808080;}
</style>
<path class="st0" d="M94.2,35.7L63.5,8.9c-1-0.9-2.4-1.1-3.6-0.5c-1.2,0.5-2,1.7-2,3v12.2c-29,0.8-41.4,13.4-46.3,21
	c-1,1.3-13.1,17.6-3.2,45.1c0.5,1.3,1.7,2.1,3,2.1c1.8,0,3.2-1.4,3.2-3.2v-0.5c0-11.9,4.2-21.1,12.1-26.6c7.1-5.1,17.5-8,31.1-8.5
	v12c0,1.4,0.8,2.5,2,3.1c1.2,0.6,2.6,0.4,3.7-0.5l30.6-26.7c0.7-0.7,1.2-1.6,1.2-2.6S95,36.3,94.2,35.7z M61.3,46.7
	c-16.3,0-29.3,3.3-38.4,9.9c-5.3,3.6-9.2,8.8-11.8,15.3c-0.5-8.4,1.6-16.5,5.9-23.2c8.3-12,23.6-18.3,44.2-18.3h3.3V19.2l22.4,19.5
	L64.7,58.2V46.7H61.3z"/>
</svg>
